<svg width="512" height="512" viewBox="0 0 512 512" fill="none" xmlns="http://www.w3.org/2000/svg">
  <rect width="512" height="512" rx="112" fill="#071527"/>
  <circle cx="256" cy="256" r="176" fill="#FFD166"/>
  <path d="M256 113L361 154V238C361 307 318 370 256 399C194 370 151 307 151 238V154L256 113Z" fill="#071527"/>
  <path d="M256 155L322 181V238C322 286 294 329 256 351C218 329 190 286 190 238V181L256 155Z" fill="#FFD166"/>
  <path d="M256 188C270 188 281 199 281 213V246H292C300 246 307 253 307 261V318C307 326 300 333 292 333H220C212 333 205 326 205 318V261C205 253 212 246 220 246H231V213C231 199 242 188 256 188ZM256 212C250 212 246 216 246 222V246H266V222C266 216 262 212 256 212ZM246 281V307H266V281C271 278 274 273 274 267C274 257 266 249 256 249C246 249 238 257 238 267C238 273 241 278 246 281Z" fill="#071527"/>
</svg>
