<svg width="512" height="512" viewBox="0 0 512 512" fill="none" xmlns="http://www.w3.org/2000/svg">
  <rect width="512" height="512" fill="#071527"/>
  <circle cx="256" cy="256" r="190" fill="#FFD166"/>
  <path d="M256 104L370 149V238C370 315 323 382 256 412C189 382 142 315 142 238V149L256 104Z" fill="#071527"/>
  <path d="M256 152L326 180V238C326 289 297 335 256 359C215 335 186 289 186 238V180L256 152Z" fill="#FFD166"/>
  <path d="M256 185C272 185 285 198 285 214V245H296C306 245 314 253 314 263V320C314 330 306 338 296 338H216C206 338 198 330 198 320V263C198 253 206 245 216 245H227V214C227 198 240 185 256 185ZM256 210C250 210 245 215 245 221V245H267V221C267 215 262 210 256 210ZM246 283V310H266V283C271 280 275 274 275 268C275 257 267 249 256 249C245 249 237 257 237 268C237 274 241 280 246 283Z" fill="#071527"/>
</svg>
